<svg xmlns="http://www.w3.org/2000/svg" viewBox="0 0 820 745" width="820" height="745">
  <defs>
    <linearGradient id="bg" x1="0%" y1="0%" x2="100%" y2="100%">
      <stop offset="0%" stop-color="#0d1117"/><stop offset="100%" stop-color="#161b28"/>
    </linearGradient>
    <linearGradient id="acc" x1="0%" y1="0%" x2="100%" y2="0%">
      <stop offset="0%" stop-color="#6C63FF"/><stop offset="100%" stop-color="#A78BFA"/>
    </linearGradient>
    <linearGradient id="amb" x1="0%" y1="0%" x2="100%" y2="0%">
      <stop offset="0%" stop-color="#F59E0B"/><stop offset="100%" stop-color="#FCD34D"/>
    </linearGradient>
    <linearGradient id="blu" x1="0%" y1="0%" x2="100%" y2="0%">
      <stop offset="0%" stop-color="#3B82F6"/><stop offset="100%" stop-color="#93C5FD"/>
    </linearGradient>
    <linearGradient id="grn" x1="0%" y1="0%" x2="100%" y2="0%">
      <stop offset="0%" stop-color="#10B981"/><stop offset="100%" stop-color="#6EE7B7"/>
    </linearGradient>
    <filter id="gl"><feGaussianBlur stdDeviation="2.5" result="b"/><feMerge><feMergeNode in="b"/><feMergeNode in="SourceGraphic"/></feMerge></filter>
  </defs>

  <!-- Main card -->
  <rect width="820" height="745" rx="18" fill="url(#bg)" stroke="#30363d" stroke-width="1.5"/>

  <!-- BG glows -->
  <circle cx="760" cy="90" r="140" fill="#6C63FF" opacity="0.04"/>
  <circle cx="60" cy="460" r="100" fill="#A78BFA" opacity="0.04"/>

  <!-- Corner dots -->
  <circle cx="746" cy="28" r="4" fill="#6C63FF" opacity="0.7" filter="url(#gl)"/>
  <circle cx="762" cy="28" r="4" fill="#8B5CF6" opacity="0.7" filter="url(#gl)"/>
  <circle cx="778" cy="28" r="4" fill="#A78BFA" opacity="0.7" filter="url(#gl)"/>

  <!-- Title -->
  <text x="38" y="52" font-family="Segoe UI, system-ui, sans-serif" font-size="22" font-weight="700" fill="#ffffff">🚧  Active Development Board</text>
  <line x1="38" y1="70" x2="782" y2="70" stroke="#21262d" stroke-width="1.5"/>

  <!--
    Card layout (each 88px tall, 12px gap):
    Card 1: y=82  → bottom 170
    Card 2: y=182 → bottom 270
    Card 3: y=282 → bottom 370
    Card 4: y=382 → bottom 470
    Learning: y=480

    Inside each card (card_top = T):
      Name text:     y = T+26
      Tech tag rect: y = T+35, h=18  → text y = T+48
      Progress bg:   y = T+60, h=10
      Status pill:   y = T+12, h=24  → text y = T+28
      % label:       y = T+70 (right of bar)
  -->

  <!-- === CARD 1: Gladiators NGO === -->
  <rect x="20" y="82" width="780" height="88" rx="12" fill="#161b22" stroke="#21262d" stroke-width="1"/>
  <rect x="20" y="82" width="5" height="88" rx="2.5" fill="#F59E0B"/>
  <!-- Name -->
  <text x="44" y="108" font-family="Segoe UI, system-ui, sans-serif" font-size="15" font-weight="600" fill="#ffffff">🤝  Gladiators NGO</text>
  <!-- Tech tag -->
  <rect x="44" y="116" width="132" height="20" rx="10" fill="#F59E0B" fill-opacity="0.12" stroke="#F59E0B" stroke-opacity="0.3" stroke-width="1"/>
  <text x="52" y="130" font-family="Segoe UI, system-ui, sans-serif" font-size="10" fill="#FBBF24">React  ·  Vite  ·  CSS</text>
  <!-- Progress bar -->
  <rect x="215" y="137" width="390" height="22" rx="11" fill="#21262d"/>
  <rect x="215" y="137" width="273" height="22" rx="11" fill="url(#amb)"/>
  <text x="616" y="153" font-family="Segoe UI, system-ui, sans-serif" font-size="13" fill="#FBBF24" text-anchor="end" font-weight="600">70%</text>
  <!-- Status pill -->
  <rect x="630" y="94" width="152" height="26" rx="13" fill="#F59E0B" fill-opacity="0.15" stroke="#F59E0B" stroke-opacity="0.4" stroke-width="1"/>
  <text x="706" y="111" font-family="Segoe UI, system-ui, sans-serif" font-size="12" fill="#FBBF24" text-anchor="middle" font-weight="600">🔨  In Progress</text>

  <!-- === CARD 2: TuskRes === -->
  <rect x="20" y="182" width="780" height="88" rx="12" fill="#161b22" stroke="#21262d" stroke-width="1"/>
  <rect x="20" y="182" width="5" height="88" rx="2.5" fill="#3B82F6"/>
  <text x="44" y="208" font-family="Segoe UI, system-ui, sans-serif" font-size="15" font-weight="600" fill="#ffffff">🐘  TuskRes</text>
  <rect x="44" y="216" width="132" height="20" rx="10" fill="#3B82F6" fill-opacity="0.12" stroke="#3B82F6" stroke-opacity="0.3" stroke-width="1"/>
  <text x="52" y="230" font-family="Segoe UI, system-ui, sans-serif" font-size="10" fill="#60A5FA">Concept  ·  JavaScript</text>
  <rect x="215" y="237" width="390" height="22" rx="11" fill="#21262d"/>
  <rect x="215" y="237" width="117" height="22" rx="11" fill="url(#blu)"/>
  <text x="616" y="253" font-family="Segoe UI, system-ui, sans-serif" font-size="13" fill="#60A5FA" text-anchor="end" font-weight="600">30%</text>
  <rect x="630" y="194" width="152" height="26" rx="13" fill="#3B82F6" fill-opacity="0.15" stroke="#3B82F6" stroke-opacity="0.4" stroke-width="1"/>
  <text x="706" y="211" font-family="Segoe UI, system-ui, sans-serif" font-size="12" fill="#93C5FD" text-anchor="middle" font-weight="600">💡  Ideation</text>

  <!-- === CARD 3: SafeX === -->
  <rect x="20" y="282" width="780" height="88" rx="12" fill="#161b22" stroke="#21262d" stroke-width="1"/>
  <rect x="20" y="282" width="5" height="88" rx="2.5" fill="#10B981"/>
  <text x="44" y="308" font-family="Segoe UI, system-ui, sans-serif" font-size="15" font-weight="600" fill="#ffffff">🛡️  SafeX</text>
  <rect x="44" y="316" width="152" height="20" rx="10" fill="#10B981" fill-opacity="0.12" stroke="#10B981" stroke-opacity="0.3" stroke-width="1"/>
  <text x="52" y="330" font-family="Segoe UI, system-ui, sans-serif" font-size="10" fill="#34D399">Full Stack  ·  TypeScript</text>
  <rect x="215" y="337" width="390" height="22" rx="11" fill="#21262d"/>
  <rect x="215" y="337" width="390" height="22" rx="11" fill="url(#grn)"/>
  <text x="616" y="353" font-family="Segoe UI, system-ui, sans-serif" font-size="13" fill="#34D399" text-anchor="end" font-weight="600">100%</text>
  <rect x="630" y="294" width="152" height="26" rx="13" fill="#10B981" fill-opacity="0.15" stroke="#10B981" stroke-opacity="0.4" stroke-width="1"/>
  <text x="706" y="311" font-family="Segoe UI, system-ui, sans-serif" font-size="12" fill="#34D399" text-anchor="middle" font-weight="600">✅  Live</text>

  <!-- === CARD 4: Battery Thermal Runaway === -->
  <rect x="20" y="382" width="780" height="88" rx="12" fill="#161b22" stroke="#21262d" stroke-width="1"/>
  <rect x="20" y="382" width="5" height="88" rx="2.5" fill="#10B981"/>
  <text x="44" y="408" font-family="Segoe UI, system-ui, sans-serif" font-size="15" font-weight="600" fill="#ffffff">🔋  Battery Thermal Runaway ID</text>
  <rect x="44" y="416" width="186" height="20" rx="10" fill="#10B981" fill-opacity="0.12" stroke="#10B981" stroke-opacity="0.3" stroke-width="1"/>
  <text x="52" y="430" font-family="Segoe UI, system-ui, sans-serif" font-size="10" fill="#34D399">IoT  ·  ESP32  ·  Embedded C++</text>
  <rect x="215" y="437" width="390" height="22" rx="11" fill="#21262d"/>
  <rect x="215" y="437" width="390" height="22" rx="11" fill="url(#grn)"/>
  <text x="616" y="453" font-family="Segoe UI, system-ui, sans-serif" font-size="13" fill="#34D399" text-anchor="end" font-weight="600">100%</text>
  <rect x="630" y="394" width="152" height="26" rx="13" fill="#10B981" fill-opacity="0.15" stroke="#10B981" stroke-opacity="0.4" stroke-width="1"/>
  <text x="706" y="411" font-family="Segoe UI, system-ui, sans-serif" font-size="12" fill="#34D399" text-anchor="middle" font-weight="600">✅  Live</text>

  <!-- === CARD 5: FestFlow === -->
  <rect x="20" y="482" width="780" height="88" rx="12" fill="#161b22" stroke="#21262d" stroke-width="1"/>
  <rect x="20" y="482" width="5" height="88" rx="2.5" fill="#10B981"/>
  <!-- Name -->
  <text x="44" y="508" font-family="Segoe UI, system-ui, sans-serif" font-size="15" font-weight="600" fill="#ffffff">🚀  FestFlow</text>
  <!-- Tech tag -->
  <rect x="44" y="516" width="186" height="20" rx="10" fill="#10B981" fill-opacity="0.12" stroke="#10B981" stroke-opacity="0.3" stroke-width="1"/>
  <text x="52" y="530" font-family="Segoe UI, system-ui, sans-serif" font-size="10" fill="#34D399">IoT  ·  WebSerial  ·  Leaflet.js</text>
  <!-- Progress bar -->
  <rect x="215" y="537" width="390" height="22" rx="11" fill="#21262d"/>
  <rect x="215" y="537" width="390" height="22" rx="11" fill="url(#grn)"/>
  <text x="616" y="553" font-family="Segoe UI, system-ui, sans-serif" font-size="13" fill="#34D399" text-anchor="end" font-weight="600">100%</text>
  <!-- Status pill -->
  <rect x="630" y="494" width="152" height="26" rx="13" fill="#10B981" fill-opacity="0.15" stroke="#10B981" stroke-opacity="0.4" stroke-width="1"/>
  <text x="706" y="511" font-family="Segoe UI, system-ui, sans-serif" font-size="12" fill="#34D399" text-anchor="middle" font-weight="600">✅  Live</text>

  <!-- === CARD 6: Karaneeyaani === -->
  <rect x="20" y="582" width="780" height="88" rx="12" fill="#161b22" stroke="#21262d" stroke-width="1"/>
  <rect x="20" y="582" width="5" height="88" rx="2.5" fill="#3B82F6"/>
  <!-- Name -->
  <text x="44" y="608" font-family="Segoe UI, system-ui, sans-serif" font-size="15" font-weight="600" fill="#ffffff">✅  Karaneeyaani</text>
  <!-- Tech tag -->
  <rect x="44" y="616" width="160" height="20" rx="10" fill="#3B82F6" fill-opacity="0.12" stroke="#3B82F6" stroke-opacity="0.3" stroke-width="1"/>
  <text x="52" y="630" font-family="Segoe UI, system-ui, sans-serif" font-size="10" fill="#93C5FD">Flutter  ·  Dart  ·  Firebase</text>
  <!-- Progress bar -->
  <rect x="215" y="637" width="390" height="22" rx="11" fill="#21262d"/>
  <rect x="215" y="637" width="390" height="22" rx="11" fill="url(#blu)"/>
  <text x="616" y="653" font-family="Segoe UI, system-ui, sans-serif" font-size="13" fill="#93C5FD" text-anchor="end" font-weight="600">100%</text>
  <!-- Status pill -->
  <rect x="630" y="594" width="152" height="26" rx="13" fill="#10B981" fill-opacity="0.15" stroke="#10B981" stroke-opacity="0.4" stroke-width="1"/>
  <text x="706" y="611" font-family="Segoe UI, system-ui, sans-serif" font-size="12" fill="#34D399" text-anchor="middle" font-weight="600">✅  Live</text>

  <!-- Learning row -->
  <line x1="38" y1="682" x2="782" y2="682" stroke="#21262d" stroke-width="1"/>
  <text x="38" y="712" font-family="Segoe UI, system-ui, sans-serif" font-size="16" font-weight="600" fill="#8b949e">🌱  Currently Learning :</text>
  <rect x="215" y="686" width="120" height="44" rx="22" fill="#6C63FF" fill-opacity="0.15" stroke="#6C63FF" stroke-opacity="0.4" stroke-width="1"/>
  <text x="275" y="712" font-family="Segoe UI, system-ui, sans-serif" font-size="15" fill="#A78BFA" text-anchor="middle" font-weight="600">⚛️  React</text>
  <rect x="345" y="686" width="120" height="44" rx="22" fill="#6C63FF" fill-opacity="0.15" stroke="#6C63FF" stroke-opacity="0.4" stroke-width="1"/>
  <text x="405" y="712" font-family="Segoe UI, system-ui, sans-serif" font-size="15" fill="#A78BFA" text-anchor="middle" font-weight="600">▲  Vercel</text>
  <rect x="475" y="686" width="170" height="44" rx="22" fill="#6C63FF" fill-opacity="0.15" stroke="#6C63FF" stroke-opacity="0.4" stroke-width="1"/>
  <text x="560" y="712" font-family="Segoe UI, system-ui, sans-serif" font-size="15" fill="#A78BFA" text-anchor="middle" font-weight="600">📡  Advanced IoT</text>
</svg>
